# xmcd CD database file
#
# Track frame offsets:
#        183
#        23883
#        43258
#        62283
#        81870
#        106258
#        128083
#        150020
#
# Disc length: 2331 seconds
#
# Revision: 0
# Processed by: cddbd v1.5.2PL0 Copyright (c) Steve Scherf et al.
# Submitted via: CUERipper 2.1.6
#
DISCID=53091908
DTITLE=Luca Carboni - Forever
DYEAR=1985
DGENRE=
TTITLE0=Sarà un uomo
TTITLE1=Sexy
TTITLE2=Ci sei perché
TTITLE3=Sugo
TTITLE4=Le nostre parole
TTITLE5=Simmu gente ca nun sà
TTITLE6=Solarium
TTITLE7=La mamma
EXTD=
EXTT0=
EXTT1=
EXTT2=
EXTT3=
EXTT4=
EXTT5=
EXTT6=
EXTT7=
PLAYORDER=
